<svg width="800" height="40" viewBox="0 0 800 40" xmlns="http://www.w3.org/2000/svg">
<style>
  .bg { fill: #050510; }
  .star { animation: t 2s infinite alternate; fill: #fff; }
  .s2 { animation: t 1s infinite alternate; fill: #bbf; }
  @keyframes t { 0% { opacity: 0.2; transform: scale(1); } 100% { opacity: 1; transform: scale(1.5); } }
</style>
<rect width="800" height="40" class="bg" />
<rect x="276" y="32" width="1" height="1" class="s2" />
<rect x="321" y="39" width="2" height="2" class="s2" />
<rect x="212" y="0" width="2" height="2" class="s2" />
<rect x="564" y="21" width="1" height="1" class="star" />
<rect x="344" y="9" width="2" height="2" class="star" />
<rect x="539" y="31" width="2" height="2" class="s2" />
<rect x="217" y="30" width="1" height="1" class="s2" />
<rect x="527" y="11" width="1" height="1" class="s2" />
<rect x="445" y="7" width="1" height="1" class="star" />
<rect x="725" y="6" width="2" height="2" class="s2" />
<rect x="26" y="33" width="2" height="2" class="star" />
<rect x="383" y="23" width="2" height="2" class="s2" />
<rect x="63" y="23" width="2" height="2" class="star" />
<rect x="669" y="2" width="1" height="1" class="star" />
<rect x="35" y="1" width="1" height="1" class="s2" />
<rect x="695" y="24" width="1" height="1" class="s2" />
<rect x="132" y="37" width="2" height="2" class="star" />
<rect x="4" y="22" width="2" height="2" class="s2" />
<rect x="647" y="16" width="2" height="2" class="s2" />
<rect x="502" y="40" width="1" height="1" class="star" />
<rect x="799" y="4" width="1" height="1" class="s2" />
<rect x="571" y="18" width="1" height="1" class="s2" />
<rect x="519" y="33" width="2" height="2" class="s2" />
<rect x="337" y="11" width="1" height="1" class="star" />
<rect x="449" y="2" width="1" height="1" class="s2" />
<rect x="362" y="36" width="2" height="2" class="s2" />
<rect x="449" y="1" width="2" height="2" class="star" />
<rect x="199" y="35" width="2" height="2" class="s2" />
<rect x="619" y="9" width="2" height="2" class="s2" />
<rect x="248" y="38" width="2" height="2" class="s2" />
<rect x="664" y="9" width="2" height="2" class="s2" />
<rect x="328" y="20" width="1" height="1" class="star" />
<rect x="779" y="2" width="1" height="1" class="star" />
<rect x="363" y="3" width="1" height="1" class="s2" />
<rect x="673" y="2" width="2" height="2" class="s2" />
<rect x="746" y="33" width="1" height="1" class="s2" />
<rect x="185" y="10" width="2" height="2" class="star" />
<rect x="794" y="3" width="1" height="1" class="star" />
<rect x="631" y="22" width="2" height="2" class="s2" />
<rect x="396" y="28" width="2" height="2" class="star" />
<rect x="335" y="40" width="1" height="1" class="star" />
<rect x="511" y="29" width="1" height="1" class="s2" />
<rect x="57" y="28" width="2" height="2" class="s2" />
<rect x="484" y="24" width="1" height="1" class="star" />
<rect x="782" y="0" width="1" height="1" class="star" />
<rect x="84" y="2" width="1" height="1" class="s2" />
<rect x="756" y="40" width="1" height="1" class="s2" />
<rect x="722" y="40" width="1" height="1" class="s2" />
<rect x="454" y="11" width="2" height="2" class="s2" />
<rect x="392" y="13" width="2" height="2" class="star" />
<rect x="434" y="8" width="2" height="2" class="s2" />
<rect x="29" y="35" width="1" height="1" class="star" />
<rect x="164" y="14" width="1" height="1" class="star" />
<rect x="504" y="11" width="2" height="2" class="star" />
<rect x="94" y="30" width="1" height="1" class="star" />
<rect x="190" y="28" width="2" height="2" class="star" />
<rect x="56" y="17" width="1" height="1" class="star" />
<rect x="236" y="14" width="2" height="2" class="star" />
<rect x="694" y="5" width="2" height="2" class="s2" />
<rect x="227" y="25" width="1" height="1" class="s2" />
<rect x="737" y="6" width="2" height="2" class="s2" />
<rect x="658" y="34" width="1" height="1" class="star" />
<rect x="158" y="16" width="2" height="2" class="s2" />
<rect x="452" y="28" width="1" height="1" class="star" />
<rect x="449" y="35" width="2" height="2" class="star" />
<rect x="22" y="27" width="2" height="2" class="star" />
<rect x="361" y="14" width="1" height="1" class="s2" />
<rect x="251" y="39" width="2" height="2" class="s2" />
<rect x="110" y="0" width="2" height="2" class="star" />
<rect x="645" y="40" width="1" height="1" class="s2" />
<rect x="194" y="30" width="1" height="1" class="s2" />
<rect x="457" y="35" width="1" height="1" class="star" />
<rect x="781" y="4" width="1" height="1" class="s2" />
<rect x="166" y="19" width="1" height="1" class="s2" />
<rect x="344" y="17" width="1" height="1" class="s2" />
<rect x="761" y="12" width="1" height="1" class="star" />
<rect x="200" y="0" width="1" height="1" class="s2" />
<rect x="326" y="19" width="2" height="2" class="star" />
<rect x="548" y="24" width="2" height="2" class="star" />
<rect x="340" y="10" width="2" height="2" class="s2" />
<rect x="769" y="39" width="2" height="2" class="star" />
<rect x="539" y="9" width="1" height="1" class="star" />
<rect x="294" y="26" width="1" height="1" class="star" />
<rect x="575" y="25" width="1" height="1" class="star" />
<rect x="142" y="40" width="1" height="1" class="s2" />
<rect x="334" y="9" width="1" height="1" class="s2" />
<rect x="587" y="32" width="1" height="1" class="s2" />
<rect x="311" y="9" width="1" height="1" class="s2" />
<rect x="789" y="4" width="2" height="2" class="star" />
<rect x="104" y="3" width="2" height="2" class="s2" />
<rect x="786" y="23" width="2" height="2" class="s2" />
<rect x="601" y="19" width="2" height="2" class="s2" />
<rect x="566" y="14" width="1" height="1" class="star" />
<rect x="270" y="1" width="1" height="1" class="star" />
<rect x="154" y="16" width="2" height="2" class="s2" />
<rect x="114" y="15" width="2" height="2" class="star" />
<rect x="299" y="23" width="1" height="1" class="star" />
<rect x="483" y="36" width="1" height="1" class="star" />
<rect x="153" y="29" width="1" height="1" class="star" />
<rect x="757" y="0" width="2" height="2" class="s2" />
</svg>