<svg width="900" height="50" viewBox="0 0 900 50" xmlns="http://www.w3.org/2000/svg">
<defs>
  <style>
    @keyframes tw { 0%,100%{opacity:0.1;} 50%{opacity:1;} }
  </style>
</defs>
<rect width="900" height="50" fill="#060918"/>
<rect x="331" y="9" width="1" height="1" fill="#ffffff" shape-rendering="crispEdges" style="animation:tw 1.68s 3.25s infinite;"/>
<rect x="374" y="37" width="1" height="1" fill="#ffffff" shape-rendering="crispEdges" style="animation:tw 2.04s 4.55s infinite;"/>
<rect x="444" y="26" width="1" height="1" fill="#ffffff" shape-rendering="crispEdges" style="animation:tw 2.88s 1.2s infinite;"/>
<rect x="846" y="36" width="1" height="1" fill="#ffffff" shape-rendering="crispEdges" style="animation:tw 3.08s 4.74s infinite;"/>
<rect x="590" y="37" width="1" height="1" fill="#c8e0ff" shape-rendering="crispEdges" style="animation:tw 2.05s 0.25s infinite;"/>
<rect x="296" y="26" width="1" height="1" fill="#c8e0ff" shape-rendering="crispEdges" style="animation:tw 2.93s 2.7s infinite;"/>
<rect x="105" y="37" width="2" height="2" fill="#ffffff" shape-rendering="crispEdges" style="animation:tw 2.43s 3.19s infinite;"/>
<rect x="577" y="3" width="2" height="2" fill="#fff4a3" shape-rendering="crispEdges" style="animation:tw 3.2s 1.03s infinite;"/>
<rect x="795" y="20" width="1" height="1" fill="#7ecfff" shape-rendering="crispEdges" style="animation:tw 2.63s 2.93s infinite;"/>
<rect x="254" y="50" width="1" height="1" fill="#7ecfff" shape-rendering="crispEdges" style="animation:tw 2.11s 3.49s infinite;"/>
<rect x="537" y="31" width="1" height="1" fill="#ffffff" shape-rendering="crispEdges" style="animation:tw 2.22s 3.65s infinite;"/>
<rect x="120" y="32" width="1" height="1" fill="#fff4a3" shape-rendering="crispEdges" style="animation:tw 2.36s 0.82s infinite;"/>
<rect x="431" y="2" width="2" height="2" fill="#7ecfff" shape-rendering="crispEdges" style="animation:tw 2.9s 0.39s infinite;"/>
<rect x="348" y="44" width="1" height="1" fill="#fff4a3" shape-rendering="crispEdges" style="animation:tw 2.95s 2.97s infinite;"/>
<rect x="70" y="5" width="1" height="1" fill="#ffffff" shape-rendering="crispEdges" style="animation:tw 3.16s 2.37s infinite;"/>
<rect x="748" y="44" width="1" height="1" fill="#fff4a3" shape-rendering="crispEdges" style="animation:tw 3.98s 3.24s infinite;"/>
<rect x="291" y="45" width="1" height="1" fill="#fff4a3" shape-rendering="crispEdges" style="animation:tw 2.37s 4.44s infinite;"/>
<rect x="363" y="10" width="2" height="2" fill="#7ecfff" shape-rendering="crispEdges" style="animation:tw 1.65s 0.59s infinite;"/>
<rect x="132" y="47" width="1" height="1" fill="#fff4a3" shape-rendering="crispEdges" style="animation:tw 3.79s 1.99s infinite;"/>
<rect x="82" y="10" width="1" height="1" fill="#c8e0ff" shape-rendering="crispEdges" style="animation:tw 2.19s 2.01s infinite;"/>
<rect x="838" y="27" width="2" height="2" fill="#7ecfff" shape-rendering="crispEdges" style="animation:tw 2.54s 1.39s infinite;"/>
<rect x="699" y="24" width="1" height="1" fill="#c8e0ff" shape-rendering="crispEdges" style="animation:tw 1.94s 0.75s infinite;"/>
<rect x="674" y="14" width="1" height="1" fill="#7ecfff" shape-rendering="crispEdges" style="animation:tw 2.97s 2.42s infinite;"/>
<rect x="288" y="0" width="1" height="1" fill="#7ecfff" shape-rendering="crispEdges" style="animation:tw 2.42s 2.09s infinite;"/>
<rect x="128" y="44" width="2" height="2" fill="#ffffff" shape-rendering="crispEdges" style="animation:tw 3.14s 4.75s infinite;"/>
<rect x="467" y="49" width="2" height="2" fill="#fff4a3" shape-rendering="crispEdges" style="animation:tw 2.48s 3.99s infinite;"/>
<rect x="403" y="6" width="1" height="1" fill="#ffffff" shape-rendering="crispEdges" style="animation:tw 1.66s 3.17s infinite;"/>
<rect x="213" y="28" width="1" height="1" fill="#ffffff" shape-rendering="crispEdges" style="animation:tw 3.0s 0.55s infinite;"/>
<rect x="0" y="36" width="1" height="1" fill="#ffffff" shape-rendering="crispEdges" style="animation:tw 3.87s 2.68s infinite;"/>
<rect x="72" y="13" width="2" height="2" fill="#7ecfff" shape-rendering="crispEdges" style="animation:tw 3.09s 1.88s infinite;"/>
<rect x="616" y="23" width="1" height="1" fill="#fff4a3" shape-rendering="crispEdges" style="animation:tw 3.62s 0.61s infinite;"/>
<rect x="491" y="30" width="1" height="1" fill="#7ecfff" shape-rendering="crispEdges" style="animation:tw 1.76s 0.43s infinite;"/>
<rect x="758" y="16" width="1" height="1" fill="#ffffff" shape-rendering="crispEdges" style="animation:tw 1.9s 4.14s infinite;"/>
<rect x="210" y="33" width="1" height="1" fill="#ffffff" shape-rendering="crispEdges" style="animation:tw 2.86s 0.73s infinite;"/>
<rect x="776" y="33" width="1" height="1" fill="#7ecfff" shape-rendering="crispEdges" style="animation:tw 3.66s 4.89s infinite;"/>
<rect x="530" y="23" width="1" height="1" fill="#7ecfff" shape-rendering="crispEdges" style="animation:tw 2.06s 1.78s infinite;"/>
<rect x="651" y="14" width="2" height="2" fill="#c8e0ff" shape-rendering="crispEdges" style="animation:tw 3.96s 4.06s infinite;"/>
<rect x="825" y="15" width="1" height="1" fill="#fff4a3" shape-rendering="crispEdges" style="animation:tw 2.07s 3.7s infinite;"/>
<rect x="364" y="46" width="1" height="1" fill="#fff4a3" shape-rendering="crispEdges" style="animation:tw 3.48s 4.95s infinite;"/>
<rect x="265" y="12" width="2" height="2" fill="#7ecfff" shape-rendering="crispEdges" style="animation:tw 2.36s 3.03s infinite;"/>
<rect x="373" y="5" width="1" height="1" fill="#7ecfff" shape-rendering="crispEdges" style="animation:tw 2.68s 0.51s infinite;"/>
<rect x="209" y="30" width="2" height="2" fill="#ffffff" shape-rendering="crispEdges" style="animation:tw 3.03s 4.93s infinite;"/>
<rect x="490" y="41" width="1" height="1" fill="#ffffff" shape-rendering="crispEdges" style="animation:tw 1.71s 4.0s infinite;"/>
<rect x="397" y="50" width="2" height="2" fill="#c8e0ff" shape-rendering="crispEdges" style="animation:tw 2.7s 3.75s infinite;"/>
<rect x="444" y="50" width="2" height="2" fill="#fff4a3" shape-rendering="crispEdges" style="animation:tw 3.5s 1.66s infinite;"/>
<rect x="474" y="25" width="2" height="2" fill="#c8e0ff" shape-rendering="crispEdges" style="animation:tw 3.31s 4.73s infinite;"/>
<rect x="130" y="1" width="1" height="1" fill="#c8e0ff" shape-rendering="crispEdges" style="animation:tw 2.66s 2.95s infinite;"/>
<rect x="626" y="38" width="1" height="1" fill="#c8e0ff" shape-rendering="crispEdges" style="animation:tw 2.38s 3.29s infinite;"/>
<rect x="21" y="0" width="2" height="2" fill="#c8e0ff" shape-rendering="crispEdges" style="animation:tw 2.82s 3.25s infinite;"/>
<rect x="444" y="12" width="1" height="1" fill="#c8e0ff" shape-rendering="crispEdges" style="animation:tw 2.03s 0.14s infinite;"/>
<rect x="782" y="37" width="1" height="1" fill="#c8e0ff" shape-rendering="crispEdges" style="animation:tw 2.55s 1.3s infinite;"/>
<rect x="62" y="47" width="1" height="1" fill="#fff4a3" shape-rendering="crispEdges" style="animation:tw 3.16s 4.49s infinite;"/>
<rect x="846" y="32" width="1" height="1" fill="#ffffff" shape-rendering="crispEdges" style="animation:tw 2.81s 2.66s infinite;"/>
<rect x="893" y="28" width="1" height="1" fill="#c8e0ff" shape-rendering="crispEdges" style="animation:tw 3.44s 3.04s infinite;"/>
<rect x="176" y="9" width="1" height="1" fill="#ffffff" shape-rendering="crispEdges" style="animation:tw 1.8s 3.1s infinite;"/>
<rect x="333" y="43" width="2" height="2" fill="#ffffff" shape-rendering="crispEdges" style="animation:tw 2.71s 2.65s infinite;"/>
<rect x="573" y="3" width="1" height="1" fill="#ffffff" shape-rendering="crispEdges" style="animation:tw 1.61s 0.96s infinite;"/>
<rect x="519" y="28" width="2" height="2" fill="#ffffff" shape-rendering="crispEdges" style="animation:tw 3.74s 0.14s infinite;"/>
<rect x="453" y="20" width="2" height="2" fill="#c8e0ff" shape-rendering="crispEdges" style="animation:tw 3.02s 4.87s infinite;"/>
<rect x="709" y="17" width="1" height="1" fill="#c8e0ff" shape-rendering="crispEdges" style="animation:tw 3.52s 2.54s infinite;"/>
<rect x="715" y="33" width="1" height="1" fill="#c8e0ff" shape-rendering="crispEdges" style="animation:tw 3.73s 4.61s infinite;"/>
<rect x="860" y="28" width="1" height="1" fill="#7ecfff" shape-rendering="crispEdges" style="animation:tw 2.48s 2.08s infinite;"/>
<rect x="74" y="42" width="1" height="1" fill="#7ecfff" shape-rendering="crispEdges" style="animation:tw 2.03s 2.14s infinite;"/>
<rect x="802" y="7" width="1" height="1" fill="#7ecfff" shape-rendering="crispEdges" style="animation:tw 3.11s 4.7s infinite;"/>
<rect x="146" y="16" width="1" height="1" fill="#ffffff" shape-rendering="crispEdges" style="animation:tw 2.05s 4.84s infinite;"/>
<rect x="407" y="31" width="1" height="1" fill="#c8e0ff" shape-rendering="crispEdges" style="animation:tw 3.58s 4.95s infinite;"/>
<rect x="723" y="27" width="2" height="2" fill="#7ecfff" shape-rendering="crispEdges" style="animation:tw 2.55s 2.02s infinite;"/>
<rect x="326" y="5" width="2" height="2" fill="#fff4a3" shape-rendering="crispEdges" style="animation:tw 2.34s 1.83s infinite;"/>
<rect x="451" y="45" width="1" height="1" fill="#7ecfff" shape-rendering="crispEdges" style="animation:tw 2.79s 1.92s infinite;"/>
<rect x="524" y="4" width="1" height="1" fill="#ffffff" shape-rendering="crispEdges" style="animation:tw 3.47s 4.93s infinite;"/>
<rect x="86" y="16" width="1" height="1" fill="#7ecfff" shape-rendering="crispEdges" style="animation:tw 3.45s 0.2s infinite;"/>
<rect x="773" y="8" width="1" height="1" fill="#7ecfff" shape-rendering="crispEdges" style="animation:tw 3.19s 4.25s infinite;"/>
<rect x="415" y="9" width="2" height="2" fill="#7ecfff" shape-rendering="crispEdges" style="animation:tw 2.93s 4.6s infinite;"/>
<rect x="91" y="17" width="1" height="1" fill="#ffffff" shape-rendering="crispEdges" style="animation:tw 1.96s 4.0s infinite;"/>
<rect x="275" y="1" width="2" height="2" fill="#c8e0ff" shape-rendering="crispEdges" style="animation:tw 2.15s 0.44s infinite;"/>
<rect x="68" y="16" width="1" height="1" fill="#fff4a3" shape-rendering="crispEdges" style="animation:tw 2.35s 2.27s infinite;"/>
<rect x="274" y="39" width="1" height="1" fill="#ffffff" shape-rendering="crispEdges" style="animation:tw 3.27s 0.22s infinite;"/>
<rect x="165" y="16" width="1" height="1" fill="#7ecfff" shape-rendering="crispEdges" style="animation:tw 3.83s 0.91s infinite;"/>
<rect x="543" y="48" width="1" height="1" fill="#c8e0ff" shape-rendering="crispEdges" style="animation:tw 2.75s 1.45s infinite;"/>
<rect x="277" y="22" width="1" height="1" fill="#ffffff" shape-rendering="crispEdges" style="animation:tw 1.59s 4.97s infinite;"/>
<rect x="750" y="32" width="2" height="2" fill="#c8e0ff" shape-rendering="crispEdges" style="animation:tw 2.79s 4.89s infinite;"/>
<rect x="457" y="6" width="2" height="2" fill="#fff4a3" shape-rendering="crispEdges" style="animation:tw 2.58s 4.09s infinite;"/>
<rect x="559" y="25" width="2" height="2" fill="#c8e0ff" shape-rendering="crispEdges" style="animation:tw 2.04s 1.54s infinite;"/>
<rect x="350" y="12" width="2" height="2" fill="#7ecfff" shape-rendering="crispEdges" style="animation:tw 1.85s 3.64s infinite;"/>
<rect x="55" y="8" width="1" height="1" fill="#7ecfff" shape-rendering="crispEdges" style="animation:tw 3.35s 0.35s infinite;"/>
<rect x="441" y="10" width="1" height="1" fill="#7ecfff" shape-rendering="crispEdges" style="animation:tw 3.6s 0.42s infinite;"/>
<rect x="613" y="15" width="2" height="2" fill="#c8e0ff" shape-rendering="crispEdges" style="animation:tw 2.65s 1.47s infinite;"/>
<rect x="275" y="28" width="1" height="1" fill="#7ecfff" shape-rendering="crispEdges" style="animation:tw 3.9s 1.32s infinite;"/>
<rect x="250" y="2" width="1" height="1" fill="#7ecfff" shape-rendering="crispEdges" style="animation:tw 1.96s 1.09s infinite;"/>
<rect x="390" y="5" width="1" height="1" fill="#c8e0ff" shape-rendering="crispEdges" style="animation:tw 3.14s 1.39s infinite;"/>
<rect x="516" y="49" width="1" height="1" fill="#c8e0ff" shape-rendering="crispEdges" style="animation:tw 3.54s 0.45s infinite;"/>
<rect x="409" y="37" width="1" height="1" fill="#c8e0ff" shape-rendering="crispEdges" style="animation:tw 2.25s 1.97s infinite;"/>
<rect x="86" y="37" width="2" height="2" fill="#fff4a3" shape-rendering="crispEdges" style="animation:tw 1.89s 4.27s infinite;"/>
<rect x="782" y="20" width="2" height="2" fill="#c8e0ff" shape-rendering="crispEdges" style="animation:tw 1.87s 4.92s infinite;"/>
<rect x="44" y="45" width="2" height="2" fill="#c8e0ff" shape-rendering="crispEdges" style="animation:tw 3.33s 3.14s infinite;"/>
<rect x="536" y="48" width="2" height="2" fill="#ffffff" shape-rendering="crispEdges" style="animation:tw 3.53s 2.84s infinite;"/>
<rect x="846" y="43" width="2" height="2" fill="#c8e0ff" shape-rendering="crispEdges" style="animation:tw 3.28s 3.99s infinite;"/>
<rect x="87" y="1" width="1" height="1" fill="#ffffff" shape-rendering="crispEdges" style="animation:tw 2.4s 0.67s infinite;"/>
<rect x="385" y="28" width="2" height="2" fill="#c8e0ff" shape-rendering="crispEdges" style="animation:tw 1.55s 0.25s infinite;"/>
<rect x="501" y="16" width="1" height="1" fill="#ffffff" shape-rendering="crispEdges" style="animation:tw 1.68s 2.28s infinite;"/>
<rect x="675" y="33" width="1" height="1" fill="#ffffff" shape-rendering="crispEdges" style="animation:tw 2.68s 3.73s infinite;"/>
<rect x="866" y="16" width="1" height="1" fill="#fff4a3" shape-rendering="crispEdges" style="animation:tw 2.01s 3.65s infinite;"/>
<rect x="505" y="24" width="1" height="1" fill="#ffffff" shape-rendering="crispEdges" style="animation:tw 3.21s 2.4s infinite;"/>
<rect x="631" y="40" width="2" height="2" fill="#7ecfff" shape-rendering="crispEdges" style="animation:tw 3.0s 0.99s infinite;"/>
<rect x="260" y="41" width="2" height="2" fill="#c8e0ff" shape-rendering="crispEdges" style="animation:tw 3.05s 3.46s infinite;"/>
<rect x="12" y="30" width="1" height="1" fill="#ffffff" shape-rendering="crispEdges" style="animation:tw 3.93s 2.43s infinite;"/>
<rect x="708" y="13" width="2" height="2" fill="#7ecfff" shape-rendering="crispEdges" style="animation:tw 3.27s 2.45s infinite;"/>
<rect x="475" y="29" width="1" height="1" fill="#c8e0ff" shape-rendering="crispEdges" style="animation:tw 3.98s 3.84s infinite;"/>
<rect x="319" y="5" width="1" height="1" fill="#fff4a3" shape-rendering="crispEdges" style="animation:tw 2.65s 0.09s infinite;"/>
<rect x="275" y="24" width="1" height="1" fill="#ffffff" shape-rendering="crispEdges" style="animation:tw 3.83s 4.58s infinite;"/>
<rect x="595" y="5" width="1" height="1" fill="#7ecfff" shape-rendering="crispEdges" style="animation:tw 2.15s 3.74s infinite;"/>
<rect x="135" y="38" width="2" height="2" fill="#7ecfff" shape-rendering="crispEdges" style="animation:tw 3.72s 2.54s infinite;"/>
<rect x="236" y="31" width="1" height="1" fill="#fff4a3" shape-rendering="crispEdges" style="animation:tw 1.9s 1.97s infinite;"/>
<rect x="697" y="28" width="1" height="1" fill="#7ecfff" shape-rendering="crispEdges" style="animation:tw 1.85s 1.51s infinite;"/>
<rect x="385" y="20" width="1" height="1" fill="#7ecfff" shape-rendering="crispEdges" style="animation:tw 1.5s 4.2s infinite;"/>
<rect x="859" y="25" width="1" height="1" fill="#ffffff" shape-rendering="crispEdges" style="animation:tw 1.99s 4.7s infinite;"/>
<rect x="757" y="18" width="1" height="1" fill="#ffffff" shape-rendering="crispEdges" style="animation:tw 2.48s 1.86s infinite;"/>
<rect x="369" y="27" width="1" height="1" fill="#ffffff" shape-rendering="crispEdges" style="animation:tw 2.2s 4.27s infinite;"/>
<rect x="854" y="42" width="1" height="1" fill="#7ecfff" shape-rendering="crispEdges" style="animation:tw 1.87s 3.17s infinite;"/>
<rect x="446" y="32" width="1" height="1" fill="#fff4a3" shape-rendering="crispEdges" style="animation:tw 2.43s 0.95s infinite;"/>
<rect x="29" y="48" width="2" height="2" fill="#c8e0ff" shape-rendering="crispEdges" style="animation:tw 3.69s 2.0s infinite;"/>
<rect x="736" y="5" width="1" height="1" fill="#c8e0ff" shape-rendering="crispEdges" style="animation:tw 2.53s 4.67s infinite;"/>
<rect x="659" y="18" width="1" height="1" fill="#c8e0ff" shape-rendering="crispEdges" style="animation:tw 3.82s 0.24s infinite;"/>
<rect x="174" y="30" width="1" height="1" fill="#7ecfff" shape-rendering="crispEdges" style="animation:tw 2.24s 1.72s infinite;"/>
<rect x="415" y="41" width="1" height="1" fill="#fff4a3" shape-rendering="crispEdges" style="animation:tw 2.89s 1.5s infinite;"/>
<rect x="122" y="10" width="2" height="2" fill="#fff4a3" shape-rendering="crispEdges" style="animation:tw 2.02s 0.81s infinite;"/>
<rect x="563" y="14" width="1" height="1" fill="#fff4a3" shape-rendering="crispEdges" style="animation:tw 3.99s 4.53s infinite;"/>
<rect x="437" y="8" width="2" height="2" fill="#7ecfff" shape-rendering="crispEdges" style="animation:tw 1.73s 0.96s infinite;"/>
<rect x="569" y="5" width="1" height="1" fill="#c8e0ff" shape-rendering="crispEdges" style="animation:tw 2.15s 1.2s infinite;"/>
<rect x="20" y="47" width="1" height="1" fill="#c8e0ff" shape-rendering="crispEdges" style="animation:tw 3.36s 1.91s infinite;"/>
<rect x="385" y="17" width="1" height="1" fill="#7ecfff" shape-rendering="crispEdges" style="animation:tw 2.75s 3.76s infinite;"/>
<rect x="128" y="43" width="2" height="2" fill="#c8e0ff" shape-rendering="crispEdges" style="animation:tw 3.48s 2.65s infinite;"/>
<rect x="94" y="17" width="1" height="1" fill="#fff4a3" shape-rendering="crispEdges" style="animation:tw 3.11s 1.92s infinite;"/>
<rect x="319" y="1" width="1" height="1" fill="#fff4a3" shape-rendering="crispEdges" style="animation:tw 3.27s 0.16s infinite;"/>
<rect x="601" y="31" width="1" height="1" fill="#fff4a3" shape-rendering="crispEdges" style="animation:tw 3.83s 0.37s infinite;"/>
<rect x="459" y="15" width="1" height="1" fill="#ffffff" shape-rendering="crispEdges" style="animation:tw 1.88s 1.12s infinite;"/>
<rect x="845" y="46" width="2" height="2" fill="#fff4a3" shape-rendering="crispEdges" style="animation:tw 3.41s 3.24s infinite;"/>
<rect x="87" y="35" width="1" height="1" fill="#ffffff" shape-rendering="crispEdges" style="animation:tw 1.81s 0.01s infinite;"/>
<rect x="660" y="45" width="1" height="1" fill="#fff4a3" shape-rendering="crispEdges" style="animation:tw 3.07s 4.81s infinite;"/>
<rect x="715" y="48" width="1" height="1" fill="#c8e0ff" shape-rendering="crispEdges" style="animation:tw 2.25s 0.5s infinite;"/>
<rect x="0" y="48" width="900" height="2" fill="#00d4ff" opacity="0.5" shape-rendering="crispEdges"/>
</svg>